<svg xmlns="http://www.w3.org/2000/svg" viewBox="0 0 24 32" width="24" height="32">
  <!-- PV風ピクセルアートコイン - 縦長楕円、中に凹凸 -->

  <!-- 外枠（ダークゴールド/影） -->
  <rect x="8" y="0" width="8" height="2" fill="#B8860B"/>
  <rect x="6" y="2" width="2" height="2" fill="#B8860B"/>
  <rect x="16" y="2" width="2" height="2" fill="#B8860B"/>
  <rect x="4" y="4" width="2" height="2" fill="#B8860B"/>
  <rect x="18" y="4" width="2" height="2" fill="#B8860B"/>
  <rect x="2" y="6" width="2" height="20" fill="#B8860B"/>
  <rect x="20" y="6" width="2" height="20" fill="#B8860B"/>
  <rect x="4" y="26" width="2" height="2" fill="#B8860B"/>
  <rect x="18" y="26" width="2" height="2" fill="#B8860B"/>
  <rect x="6" y="28" width="2" height="2" fill="#B8860B"/>
  <rect x="16" y="28" width="2" height="2" fill="#B8860B"/>
  <rect x="8" y="30" width="8" height="2" fill="#B8860B"/>

  <!-- メイン（ゴールド） -->
  <rect x="8" y="2" width="8" height="2" fill="#FFD700"/>
  <rect x="6" y="4" width="12" height="2" fill="#FFD700"/>
  <rect x="4" y="6" width="16" height="20" fill="#FFD700"/>
  <rect x="6" y="26" width="12" height="2" fill="#FFD700"/>
  <rect x="8" y="28" width="8" height="2" fill="#FFD700"/>

  <!-- ハイライト（明るいゴールド） -->
  <rect x="8" y="4" width="6" height="2" fill="#FFEC80"/>
  <rect x="6" y="6" width="6" height="2" fill="#FFEC80"/>
  <rect x="4" y="8" width="6" height="4" fill="#FFF5B0"/>

  <!-- 中央の凹凸（顔/模様） -->
  <!-- 目 -->
  <rect x="8" y="12" width="2" height="2" fill="#DAA520"/>
  <rect x="14" y="12" width="2" height="2" fill="#DAA520"/>
  <!-- 口（笑顔） -->
  <rect x="8" y="18" width="2" height="2" fill="#DAA520"/>
  <rect x="10" y="20" width="4" height="2" fill="#DAA520"/>
  <rect x="14" y="18" width="2" height="2" fill="#DAA520"/>

  <!-- 影（下部） -->
  <rect x="4" y="22" width="16" height="2" fill="#DAA520"/>
  <rect x="6" y="24" width="12" height="2" fill="#CD950C"/>
</svg>
