<svg xmlns="http://www.w3.org/2000/svg" viewBox="0 0 24 32" width="24" height="32">
  <!-- ピクセルアート風コイン（縦長楕円） -->
  <!-- 外枠（ダーク） -->
  <path d="M8 0h8v2h4v2h2v4h2v16h-2v4h-2v2h-4v2h-8v-2h-4v-2h-2v-4h-2v-16h2v-4h2v-2h4z" fill="#B8860B"/>
  <!-- メイン（ゴールド） -->
  <path d="M8 2h8v2h4v2h2v14h-2v4h-4v2h-8v-2h-4v-4h-2v-14h2v-2h4z" fill="#FFD700"/>
  <!-- ハイライト -->
  <path d="M10 4h4v2h2v2h2v6h-2v-4h-2v-2h-4v-2h-2v-2h2z" fill="#FFF8B0"/>
  <!-- 影 -->
  <path d="M6 20h2v2h4v2h6v-2h2v-4h2v6h-2v2h-4v2h-8v-2h-4v-4h2z" fill="#DAA520"/>
</svg>
