<svg xmlns="http://www.w3.org/2000/svg" viewBox="0 0 32 32" width="32" height="32">
  <!-- PV風ピクセルアートハート - 薄い青紫（ラベンダー） -->

  <!-- 輪郭線（立体感用） -->
  <rect x="6" y="2" width="2" height="2" fill="#8B9DC3"/>
  <rect x="24" y="2" width="2" height="2" fill="#8B9DC3"/>
  <rect x="4" y="4" width="2" height="2" fill="#8B9DC3"/>
  <rect x="26" y="4" width="2" height="2" fill="#8B9DC3"/>
  <rect x="2" y="6" width="2" height="6" fill="#8B9DC3"/>
  <rect x="28" y="6" width="2" height="6" fill="#8B9DC3"/>
  <rect x="4" y="12" width="2" height="2" fill="#8B9DC3"/>
  <rect x="26" y="12" width="2" height="2" fill="#8B9DC3"/>
  <rect x="6" y="14" width="2" height="2" fill="#8B9DC3"/>
  <rect x="24" y="14" width="2" height="2" fill="#8B9DC3"/>
  <rect x="8" y="16" width="2" height="2" fill="#8B9DC3"/>
  <rect x="22" y="16" width="2" height="2" fill="#8B9DC3"/>
  <rect x="10" y="18" width="2" height="2" fill="#8B9DC3"/>
  <rect x="20" y="18" width="2" height="2" fill="#8B9DC3"/>
  <rect x="12" y="20" width="2" height="2" fill="#8B9DC3"/>
  <rect x="18" y="20" width="2" height="2" fill="#8B9DC3"/>
  <rect x="14" y="22" width="4" height="2" fill="#8B9DC3"/>
  <rect x="15" y="24" width="2" height="2" fill="#8B9DC3"/>

  <!-- メイン（薄い青紫/ラベンダー） -->
  <rect x="8" y="2" width="6" height="2" fill="#C5D0E8"/>
  <rect x="18" y="2" width="6" height="2" fill="#C5D0E8"/>
  <rect x="6" y="4" width="8" height="2" fill="#D0DBF0"/>
  <rect x="18" y="4" width="8" height="2" fill="#C5D0E8"/>
  <rect x="4" y="6" width="10" height="2" fill="#D8E2F5"/>
  <rect x="18" y="6" width="10" height="2" fill="#C5D0E8"/>
  <rect x="4" y="8" width="24" height="2" fill="#CCD8EE"/>
  <rect x="4" y="10" width="24" height="2" fill="#BEC9E0"/>
  <rect x="6" y="12" width="20" height="2" fill="#B5C2D8"/>
  <rect x="8" y="14" width="16" height="2" fill="#ABB8D0"/>
  <rect x="10" y="16" width="12" height="2" fill="#A0ADC5"/>
  <rect x="12" y="18" width="8" height="2" fill="#96A3BB"/>
  <rect x="14" y="20" width="4" height="2" fill="#8B98B0"/>

  <!-- ハイライト（白） -->
  <rect x="8" y="4" width="4" height="2" fill="#FFFFFF"/>
  <rect x="6" y="6" width="4" height="2" fill="#F0F4FF"/>
  <rect x="8" y="8" width="6" height="2" fill="#FFFFFF"/>
  <rect x="10" y="10" width="4" height="2" fill="#E8EEFF"/>
</svg>
