<svg xmlns="http://www.w3.org/2000/svg" viewBox="0 0 32 32" width="32" height="32">
  <!-- PV風ピクセルアートハート（ダイヤモンド型） -->
  <!-- 外枠（ダークブルー/グレー） -->
  <rect x="4" y="4" width="4" height="4" fill="#6B7B8C"/>
  <rect x="8" y="0" width="4" height="4" fill="#6B7B8C"/>
  <rect x="12" y="0" width="8" height="4" fill="#6B7B8C"/>
  <rect x="20" y="0" width="4" height="4" fill="#6B7B8C"/>
  <rect x="24" y="4" width="4" height="4" fill="#6B7B8C"/>
  <rect x="0" y="8" width="4" height="4" fill="#6B7B8C"/>
  <rect x="28" y="8" width="4" height="4" fill="#6B7B8C"/>
  <rect x="0" y="12" width="4" height="4" fill="#6B7B8C"/>
  <rect x="28" y="12" width="4" height="4" fill="#6B7B8C"/>
  <rect x="4" y="16" width="4" height="4" fill="#6B7B8C"/>
  <rect x="24" y="16" width="4" height="4" fill="#6B7B8C"/>
  <rect x="8" y="20" width="4" height="4" fill="#6B7B8C"/>
  <rect x="20" y="20" width="4" height="4" fill="#6B7B8C"/>
  <rect x="12" y="24" width="4" height="4" fill="#6B7B8C"/>
  <rect x="16" y="24" width="4" height="4" fill="#6B7B8C"/>
  <rect x="14" y="28" width="4" height="4" fill="#6B7B8C"/>

  <!-- メイン（ライトブルー/パープル） -->
  <rect x="8" y="4" width="4" height="4" fill="#9BA8B9"/>
  <rect x="12" y="4" width="8" height="4" fill="#A8B5C4"/>
  <rect x="20" y="4" width="4" height="4" fill="#9BA8B9"/>
  <rect x="4" y="8" width="4" height="4" fill="#9BA8B9"/>
  <rect x="24" y="8" width="4" height="4" fill="#9BA8B9"/>
  <rect x="4" y="12" width="4" height="4" fill="#8B9AAD"/>
  <rect x="24" y="12" width="4" height="4" fill="#8B9AAD"/>
  <rect x="8" y="16" width="4" height="4" fill="#8B9AAD"/>
  <rect x="20" y="16" width="4" height="4" fill="#8B9AAD"/>
  <rect x="12" y="20" width="8" height="4" fill="#8B9AAD"/>

  <!-- 内側（ブルー） -->
  <rect x="8" y="8" width="8" height="4" fill="#B8C5D4"/>
  <rect x="16" y="8" width="8" height="4" fill="#A8B8C8"/>
  <rect x="8" y="12" width="8" height="4" fill="#A8B8C8"/>
  <rect x="16" y="12" width="8" height="4" fill="#98A8B8"/>
  <rect x="12" y="16" width="8" height="4" fill="#98A8B8"/>

  <!-- ハイライト（白） -->
  <rect x="8" y="4" width="4" height="4" fill="#E8EEF4"/>
  <rect x="20" y="4" width="4" height="4" fill="#D8E4EE"/>
  <rect x="12" y="8" width="4" height="4" fill="#FFFFFF"/>
  <rect x="16" y="8" width="4" height="4" fill="#F0F4F8"/>
  <rect x="12" y="12" width="4" height="4" fill="#E8EEF4"/>
</svg>
