<svg xmlns="http://www.w3.org/2000/svg" viewBox="0 0 32 32" width="32" height="32">
  <!-- PV風ピクセルアートハート - ラベンダー（薄い紫） -->

  <!-- 輪郭線（立体感用/ダークラベンダー） -->
  <rect x="6" y="2" width="2" height="2" fill="#9B8EC2"/>
  <rect x="24" y="2" width="2" height="2" fill="#9B8EC2"/>
  <rect x="4" y="4" width="2" height="2" fill="#9B8EC2"/>
  <rect x="26" y="4" width="2" height="2" fill="#9B8EC2"/>
  <rect x="2" y="6" width="2" height="6" fill="#9B8EC2"/>
  <rect x="28" y="6" width="2" height="6" fill="#9B8EC2"/>
  <rect x="4" y="12" width="2" height="2" fill="#9B8EC2"/>
  <rect x="26" y="12" width="2" height="2" fill="#9B8EC2"/>
  <rect x="6" y="14" width="2" height="2" fill="#9B8EC2"/>
  <rect x="24" y="14" width="2" height="2" fill="#9B8EC2"/>
  <rect x="8" y="16" width="2" height="2" fill="#9B8EC2"/>
  <rect x="22" y="16" width="2" height="2" fill="#9B8EC2"/>
  <rect x="10" y="18" width="2" height="2" fill="#9B8EC2"/>
  <rect x="20" y="18" width="2" height="2" fill="#9B8EC2"/>
  <rect x="12" y="20" width="2" height="2" fill="#9B8EC2"/>
  <rect x="18" y="20" width="2" height="2" fill="#9B8EC2"/>
  <rect x="14" y="22" width="4" height="2" fill="#9B8EC2"/>
  <rect x="15" y="24" width="2" height="2" fill="#9B8EC2"/>

  <!-- メイン（ラベンダー/薄い紫） -->
  <rect x="8" y="2" width="6" height="2" fill="#D8D0F0"/>
  <rect x="18" y="2" width="6" height="2" fill="#D8D0F0"/>
  <rect x="6" y="4" width="8" height="2" fill="#E0D8F8"/>
  <rect x="18" y="4" width="8" height="2" fill="#D8D0F0"/>
  <rect x="4" y="6" width="10" height="2" fill="#E8E0FF"/>
  <rect x="18" y="6" width="10" height="2" fill="#D8D0F0"/>
  <rect x="4" y="8" width="24" height="2" fill="#DCD0F5"/>
  <rect x="4" y="10" width="24" height="2" fill="#D0C4E8"/>
  <rect x="6" y="12" width="20" height="2" fill="#C8BBE0"/>
  <rect x="8" y="14" width="16" height="2" fill="#BFB0D8"/>
  <rect x="10" y="16" width="12" height="2" fill="#B5A5D0"/>
  <rect x="12" y="18" width="8" height="2" fill="#AB9AC8"/>
  <rect x="14" y="20" width="4" height="2" fill="#A090C0"/>

  <!-- ハイライト（白/薄いラベンダー） -->
  <rect x="8" y="4" width="4" height="2" fill="#FFFFFF"/>
  <rect x="6" y="6" width="4" height="2" fill="#F5F0FF"/>
  <rect x="8" y="8" width="6" height="2" fill="#FFFFFF"/>
  <rect x="10" y="10" width="4" height="2" fill="#EDE8FF"/>
</svg>
